<svg width="83" height="40" viewBox="0 0 83 40" fill="none" xmlns="http://www.w3.org/2000/svg">
<g clip-path="url(#clip0)">
<path d="M73.4373 8H67.3658L71.54 14.1308H83L73.4373 8Z" fill="#94FCFC"/>
<path d="M82.9999 14.1308H71.5398L76.8524 22.2056L82.9999 14.1308Z" fill="#5FBAE6"/>
<path d="M76.8526 22.2056L71.54 14.1308L63.0399 40L76.8526 22.2056Z" fill="#2395D0"/>
<path d="M9.23523 19.0856H5.92709V29.9565H2.10518V19.0856H0V17.288L2.10518 16.2853V15.2826C2.10518 13.7255 2.49781 12.5883 3.28308 11.8709C4.06835 11.1535 5.32561 10.7948 7.05486 10.7948C8.37478 10.7948 9.5485 10.9864 10.576 11.3695L9.59863 14.1087C8.83007 13.8722 8.11999 13.754 7.46838 13.754C6.92538 13.754 6.53275 13.913 6.29048 14.2309C6.04822 14.5407 5.92709 14.9402 5.92709 15.4293V16.2853H9.23523V19.0856Z" fill="#303030"/>
<path d="M19.3128 29.9565L18.5735 28.0978H18.4732C17.83 28.8886 17.1659 29.4388 16.4808 29.7486C15.8042 30.0502 14.9187 30.2011 13.8243 30.2011C12.4793 30.2011 11.4184 29.8261 10.6415 29.0761C9.87291 28.3261 9.48863 27.2581 9.48863 25.8723C9.48863 24.4212 10.0066 23.3532 11.0425 22.6684C12.0867 21.9755 13.6572 21.5924 15.7541 21.519L18.185 21.4456V20.8464C18.185 19.4606 17.4582 18.7676 16.0047 18.7676C14.8852 18.7676 13.5695 19.0978 12.0575 19.7581L10.7918 17.2391C12.4041 16.4157 14.1919 16.004 16.155 16.004C18.0347 16.004 19.4757 16.4035 20.4782 17.2024C21.4806 18.0013 21.9819 19.216 21.9819 20.8464V29.9565H19.3128ZM18.185 23.6223L16.7064 23.6712C15.5953 23.7038 14.7683 23.8994 14.2253 24.2581C13.6823 24.6168 13.4108 25.163 13.4108 25.8967C13.4108 26.9483 14.029 27.4742 15.2654 27.4742C16.1509 27.4742 16.8568 27.2255 17.3831 26.7282C17.9177 26.2309 18.185 25.5706 18.185 24.7473V23.6223Z" fill="#303030"/>
<path d="M30.081 30.2011C25.7203 30.2011 23.5399 27.8655 23.5399 23.1943C23.5399 20.8709 24.133 19.0978 25.3193 17.875C26.5055 16.644 28.2055 16.0285 30.4193 16.0285C32.04 16.0285 33.4935 16.3383 34.78 16.9578L33.6523 19.8437C33.0508 19.6073 32.4911 19.4157 31.9731 19.269C31.4552 19.1141 30.9373 19.0367 30.4193 19.0367C28.4311 19.0367 27.437 20.4144 27.437 23.1698C27.437 25.8437 28.4311 27.1807 30.4193 27.1807C31.1545 27.1807 31.8353 27.0869 32.4618 26.8994C33.0884 26.7038 33.7149 26.4021 34.3415 25.9945V29.1861C33.7233 29.5693 33.0967 29.8342 32.4618 29.9809C31.8353 30.1277 31.0417 30.2011 30.081 30.2011Z" fill="#303030"/>
<path d="M41.8642 18.682C41.0538 18.682 40.4189 18.9347 39.9595 19.4402C39.5 19.9375 39.2369 20.6467 39.17 21.5679H44.5332C44.5165 20.6467 44.2701 19.9375 43.7939 19.4402C43.3177 18.9347 42.6745 18.682 41.8642 18.682ZM42.403 30.2011C40.1474 30.2011 38.3848 29.5937 37.115 28.379C35.8452 27.1644 35.2103 25.4443 35.2103 23.2187C35.2103 20.928 35.795 19.1589 36.9646 17.9117C38.1425 16.6562 39.7673 16.0285 41.8391 16.0285C43.819 16.0285 45.3603 16.5788 46.463 17.6793C47.5657 18.7799 48.117 20.3002 48.117 22.2405V24.0502H39.0823C39.1241 25.11 39.4457 25.9375 40.0472 26.5326C40.6487 27.1277 41.4924 27.4252 42.5784 27.4252C43.4222 27.4252 44.22 27.3396 44.9718 27.1684C45.7237 26.9973 46.5089 26.7242 47.3276 26.3492V29.235C46.6593 29.5611 45.945 29.8016 45.1848 29.9565C44.4246 30.1195 43.4973 30.2011 42.403 30.2011Z" fill="#303030"/>
<path d="M56.102 27.2296C56.7703 27.2296 57.5723 27.0869 58.5079 26.8016V29.5774C57.5556 29.9932 56.386 30.2011 54.9993 30.2011C53.4705 30.2011 52.3553 29.8261 51.6535 29.0761C50.9602 28.3179 50.6135 27.1848 50.6135 25.6766V19.0856H48.784V17.5081L50.8891 16.2608L51.9919 13.375H54.4354V16.2853H58.3575V19.0856H54.4354V25.6766C54.4354 26.2065 54.5857 26.5978 54.8865 26.8505C55.1956 27.1032 55.6007 27.2296 56.102 27.2296Z" fill="#303030"/>
</g>
<defs>
<clipPath id="clip0">
<rect width="83" height="40" fill="white"/>
</clipPath>
</defs>
</svg>
